<svg xmlns="http://www.w3.org/2000/svg" viewBox="0 0 980 980" fill="none" shape-rendering="auto" width="128" height="128"><metadata xmlns:rdf="http://www.w3.org/1999/02/22-rdf-syntax-ns#" xmlns:xsi="http://www.w3.org/2001/XMLSchema-instance" xmlns:dc="http://purl.org/dc/elements/1.1/" xmlns:dcterms="http://purl.org/dc/terms/"><rdf:RDF><rdf:Description><dc:title>Lorelei</dc:title><dc:creator>Lisa Wischofsky</dc:creator><dc:source xsi:type="dcterms:URI">https://www.figma.com/community/file/1198749693280469639</dc:source><dcterms:license xsi:type="dcterms:URI">https://creativecommons.org/publicdomain/zero/1.0/</dcterms:license><dc:rights>Remix of „Lorelei” (https://www.figma.com/community/file/1198749693280469639) by „Lisa Wischofsky”, licensed under „CC0 1.0” (https://creativecommons.org/publicdomain/zero/1.0/)</dc:rights></rdf:Description></rdf:RDF></metadata><mask id="viewboxMask"><rect width="980" height="980" rx="490" ry="490" x="0" y="0" fill="#fff" /></mask><g mask="url(#viewboxMask)"><rect fill="#f5c2e7" width="980" height="980" x="0" y="0" /><g transform="translate(10 -60)"><path fill-rule="evenodd" clip-rule="evenodd" d="M512 165c2-3 2-7-1-8l-7 1-2 1-22 11c-27 16-50 39-67 64l-4 3h-2c-12 4-24 8-36 10l-6 1c-7 1-15 2-22 5-20 7-39 18-54 33l-8 9-14 13c-16 18-29 38-41 59a356 356 0 0 0-40 155c0 18-1 37 1 55 2 21 6 43 15 63a150 150 0 0 0 53 62l6 4 10 9c-3 12-6 24-14 34a69 69 0 0 1-37 23c-9 3-18 5-27 4 0 2 3 4 5 5 11 5 21 4 32 1l-30 16-4 1-17 6h-1l-3 3c-1 2 0 4 1 6l11 10c10 6 20 12 31 15 20 8 42 9 63 4 12-2 22-8 32-15 3 9 12 13 21 13l8-1 13-2 31-7 50-11 32-3h42c18 0 36 3 54 8l11 4c7 3 14 6 23 7 17 2 34-3 49-10 5-2 8-4 11-9a131 131 0 0 0 76-15c2-1 4-4 2-6l-4-4-2-1a168 168 0 0 1-54-71c-4-11-8-24-6-36 0-5 2-9 6-12l7-2h1l-3-60c28-27 51-60 62-99l-1 12a112 112 0 0 1-36 67c-2 2-4 4-7 4 0 3 2 5 4 6 6 1 12-2 16-5 14-9 26-22 32-38 8-20 11-43 11-64 0-25-3-50-8-74-3-12-5-23-9-34v-7c5-19 4-40-2-59-7-25-22-46-42-62-10-9-22-16-35-22a183 183 0 0 0-82-15l6-3 10-4c14-5 29-8 44-9a118 118 0 0 1 32 2l4 1 8 1v-2c0-2-1-5-3-6l-16-10c-13-5-25-9-38-12-24-6-50-4-74 0-21 3-41 10-60 18l-8 4-10 5 14-23 13-14 3-1 3-2ZM208 482l1-9-3 13a382 382 0 0 0-2 114 160 160 0 0 0 39 78 304 304 0 0 1-36-189l1-7Z" fill="#000000"/><path d="M528 244c41 6 80 22 113 47 28 21 50 49 65 81 13 28 20 60 19 91-1 15-3 30-8 44h-2l1-21c1-30-2-59-13-87-10-30-28-57-50-79-42-40-98-62-156-63a243 243 0 0 0-196 94 207 207 0 0 0-40 139l2 25c8 0 19 0 25 7l-3 3-17 1c-12 1-24 5-33 13a64 64 0 0 0-17 39c-5 32 12 65 39 83 16 10 36 15 55 9 4-2 9-5 14-3 3 1 4 4 5 7a251 251 0 0 0 90 100c8 7 18 13 28 18 18 8 38 14 57 19l32 8c5 1 9 1 13 3l-4 1c-25 2-48-3-72-10-12-3-23-7-34-12a306 306 0 0 1-84-63l2 28c1 17 0 35-6 52-4 12-11 24-19 34-10 10-22 19-34 26-10 7-21 14-32 18l-16 5 9-9 31-20 22-17a95 95 0 0 0 32-56c2-14 2-28 2-43v-27c-10-14-22-29-27-46-17 8-38 7-55-1-17-7-32-19-43-33-12-17-19-36-21-56s2-40 15-56c9-10 22-18 35-21-4-14-6-29-6-44a234 234 0 0 1 83-173 249 249 0 0 1 199-55Z" fill="#000"/><path d="M653 320c22 22 40 49 50 79 11 28 14 57 13 87l-1 21-5 15-2 13 2 56c0 21 1 42-1 63l-3 47c-2 16-7 31-14 45-11 18-26 33-44 44-13 8-27 12-41 16l-38 11-17 3c0 1 1 2 3 2 8 5 17 5 26 4-3 7-4 14-2 22 3 7 11 11 17 14 12 6 24 7 36 9 7 6 14 14 16 24 2 8 2 16-2 23-5 10-14 18-24 23-13 8-27 14-42 18a468 468 0 0 1-222-1c-17-4-33-9-48-17-12-6-23-13-32-22-5-7-9-14-10-23 11-4 22-11 32-18 12-7 24-16 34-26 8-10 15-22 19-34 6-17 7-35 6-52l-2-28 22 23c19 15 40 30 62 40 11 5 22 9 34 12 24 7 47 12 72 10l4-1c-4-2-8-2-13-3l-32-8c-19-5-39-11-57-19l-29-17c-11-9-23-17-33-27a251 251 0 0 1-56-74c-1-3-2-6-5-7-5-2-10 1-14 3-19 6-39 1-55-9a88 88 0 0 1-39-83c1-14 7-28 17-39 9-8 21-12 33-13l17-1 3-3c-6-7-17-7-25-7l-2-25a207 207 0 0 1 40-139 243 243 0 0 1 196-94c58 1 114 23 156 63Z" fill="#ffffff"/><path d="M710 522c3 0 3 4 4 6 3 11 4 23 5 34l2 21c1 22 2 43 1 65-1 21-1 44-5 65a136 136 0 0 1-80 99c-15 7-31 11-48 13v15c1 3 3 4 5 6 12 6 23 8 36 11 12 3 24 5 36 11-3 3-7 4-11 4-7 1-15-1-23-1-12-2-24-3-36-9-6-3-14-7-17-14-2-8-1-15 2-22-9 1-18 1-26-4-2 0-3-1-3-2l17-3 38-11c14-4 28-8 41-16 18-11 33-26 44-44 7-14 12-29 14-45l3-47c2-21 1-42 1-63l-2-56 2-13ZM252 549c8 0 17 1 23 7 5 4 10 9 12 15 1 3 0 6-2 8l-13 8c-7 6-7 19 0 25 6 5 14 8 21 11 2 0 5 1 6 3-1 2-3 3-5 3-10 0-20-3-28-9-5-3-8-8-9-13-2-8-2-17 4-24 4-6 11-9 18-12-4-5-7-11-14-13-7-3-15-3-22-5l9-4Z" fill="#000"/><path d="M679 466c8 3 13 11 15 19 1 5 2 11 1 17 0 3-1 7-4 9-4 2-8 1-10-3-3-4-2-10-3-15s-4-11-9-13c-8-2-13 1-19 5 4 8 4 16 3 24 0 8-1 15-4 23l-4 9c-1 4-4 7-8 8s-8-2-10-5c-3-4-5-9-5-14-2 4-3 9-6 12-3-2-3-7-4-10 0-13 6-27 13-38s17-22 29-27c8-4 17-5 25-1ZM482 474c18 8 33 24 39 44 2 6 4 13 2 19-1 2-2 3-4 2-3-3-5-8-7-12-8-14-18-28-33-36-10-6-22-8-34-5l5 10c3 6 3 12 3 18 0 8-1 15-3 23-2 6-6 12-10 17-3 3-6 5-10 5-5 0-9-2-12-6-5-8-6-18-6-27 0-7 2-14 4-21l-6 8c-3 4-10 4-13 0-3-3-3-8-1-12 8-12 19-22 32-28 17-7 37-7 54 1Z" fill="#000000"/><path d="M479 386c16 1 33 7 46 17 3 3 7 5 8 9 1 2-1 5-3 4-8-1-15-5-23-7-7-3-15-5-23-5-7-1-15 0-22 1-15 2-30 9-43 16l-21 9-1-1c1-4 3-9 6-12 6-10 17-16 27-21 15-7 32-11 49-10ZM673 390c5 2 11 5 15 10 4 4 5 9 4 15l-23-7c-7-2-13-1-20-2-7 0-15 1-21 5l-13 8h-3c-1-3 0-6 2-8 5-9 13-15 22-18 12-4 24-6 37-3Z" fill="#000000"/><path d="M609 602c1 9-4 16-9 23-4 3-9 6-15 6s-13-3-19-5c-4-2-8-3-11-6l5-4c9-1 17 3 25 4 4 0 7-3 9-6 5-5 9-10 15-12Z" fill="#000000"/><path fill-rule="evenodd" clip-rule="evenodd" d="m527 664 16 4 6 1a258 258 0 0 0 69 8c8 0 17 2 24 6 4 2 5 4 5 8l-6-2c-9-2-17-2-26-2h-8c1 6 0 11-2 16h3l12 1c2 0 4 1 5 3 0 3-2 3-4 4h-23a2932 2932 0 0 0-86-1l-2 1-1 1-3-2-27-2a3065 3065 0 0 0-8 0c-3-1-7-1-10-3l14-1h29c0-9-1-21 2-30-9 1-19 2-28 5-8 3-15 7-20 14l-4 4c-1 2-2 5-4 6l-2-1c0-4 0-10 2-14l11-11c10-7 24-10 36-12 10-1 20-2 30-1Zm-16 10a104 104 0 0 1 28 4l16 4v21l-18 1h-23v-3c1-9 2-19-3-27Zm89 13c-13 0-25-1-37-4 1 7 1 14-1 20h39c-2-5-2-11-1-16Z" fill="#000000"/><path d="M631 178a213 213 0 0 1 54 22c3 2 3 5 4 8l-13-2c-10-1-20-3-30-2-22 1-43 6-62 16 16 0 31 0 47 4 29 6 56 18 77 39 17 16 30 36 36 59 5 19 6 39 1 59a127 127 0 0 1-73 84l-20 9-5-2c1-10 4-18 6-27l2-24c0-11-2-22-4-33l-9 20c-9 17-24 32-41 41-12 8-27 13-41 17-18 5-37 7-56 9h-19c-3 0-3-2-5-4l7-10c5-9 11-18 15-28l7-25c4-14 5-28 5-43a299 299 0 0 1-108 125c-12 8-26 13-39 18-6 2-11 4-17 1l2-13 4-30c-7 15-13 32-16 49-5 28-1 55 5 83l2 15c-8 2-16 1-24-2-26-10-49-32-59-59 0-4-4-4-6-6-10-5-18-14-23-23-9-14-15-31-17-48a204 204 0 0 1 30-136c11-20 25-37 41-53a146 146 0 0 1 75-38 432 432 0 0 0 57-16c27-10 51-24 77-36a229 229 0 0 1 133-18Z" fill="#000000"/></g><g transform="translate(10 -60)"></g></g></svg>